<?xml version="1.0" encoding="utf-8"?>
<!-- Generator: Adobe Illustrator 19.0.0, SVG Export Plug-In . SVG Version: 6.00 Build 0)  -->
<svg version="1.1" id="Layer_1" xmlns="http://www.w3.org/2000/svg" xmlns:xlink="http://www.w3.org/1999/xlink" x="0px" y="0px"
	 viewBox="0 0 128 128" style="enable-background:new 0 0 128 128;" xml:space="preserve">
<style type="text/css">
	.st0{fill:#FFFFFF;}
</style>
<g id="XMLID_8_">
	<path id="XMLID_9_" class="st0" d="M3.3,72v30.7c0,7.2,5.9,13.1,13.1,13.1h63c7.2,0,13.1-5.9,13.1-13.1v-0.4l22.8,11.5
		c0.4,0.2,0.9,0.3,1.4,0.3c4.5,0,8.1-3.7,8.1-8.4V66c0-4.7-3.5-8.4-8.1-8.4c-0.5,0-1,0.1-1.4,0.3L92.2,69.5
		c-1.1-5.8-6.1-10.3-12.2-10.6c6.4-4.7,10.6-12.3,10.6-20.8c0-14.3-11.6-25.9-25.9-25.9C53.1,12.3,43.2,20,40,30.6
		c-3.5-3.6-8.5-5.8-13.9-5.8c-10.8,0-19.6,8.8-19.6,19.6c0,5.9,2.7,11.3,6.9,14.9C7.6,60.6,3.3,65.8,3.3,72z M117.2,63.8
		c0.9,0.3,1.3,1.2,1.3,2.2v39.8c0,0.9-0.4,1.9-1.3,2.2L92.4,95.4V76.3L117.2,63.8z M43.6,53c1.6,2.2,3.5,4.2,5.8,5.9H39.2
		C41,57.2,42.5,55.3,43.6,53z M45,38.1c0-10.9,8.8-19.7,19.7-19.7c10.9,0,19.7,8.8,19.7,19.7c0,10.9-8.8,19.7-19.7,19.7
		c-9.2,0-17-6.4-19.1-15c-0.1-1.1-0.3-2.1-0.5-3.1C45,39.2,45,38.7,45,38.1z M26.1,31c6.1,0,11.3,4.1,12.9,9.7
		c0.1,1.1,0.3,2.1,0.5,3.1c0,0.2,0,0.4,0,0.6c0,7.4-6,13.4-13.4,13.4c-7.4,0-13.4-6-13.4-13.4S18.7,31,26.1,31z M9.5,72
		c0-3.8,3.1-6.9,6.9-6.9h63c3.8,0,6.9,3.1,6.9,6.9v30.7c0,3.8-3.1,6.9-6.9,6.9h-63c-3.8,0-6.9-3.1-6.9-6.9V72z"/>
</g>
</svg>
