<?xml version="1.0" encoding="utf-8"?>
<!-- Generator: Adobe Illustrator 19.0.0, SVG Export Plug-In . SVG Version: 6.00 Build 0)  -->
<svg version="1.1" id="Layer_1" xmlns="http://www.w3.org/2000/svg" xmlns:xlink="http://www.w3.org/1999/xlink" x="0px" y="0px"
	 viewBox="0 0 128 128" style="enable-background:new 0 0 128 128;" xml:space="preserve">
<style type="text/css">
	.st0{fill:#FFFFFF;}
</style>
<g id="XMLID_6_">
	<path id="XMLID_9_" class="st0" d="M19.4,91.7h37.1l39.2,28.1c0.6,0.4,1.3,0.6,2,0.6c0.5,0,1.1-0.1,1.5-0.4c1.1-0.6,1.8-1.7,1.8-3
		V91.7h6.3c9.6,0,17.3-7.2,17.3-16.1V24.3c0-9.1-7.9-16.8-17.3-16.8H19.4c-9,0-16.1,7.4-16.1,16.8v51.4
		C3.3,84.8,10.3,91.7,19.4,91.7z M10.1,24.3c0-5.6,4.1-10,9.4-10h87.9c5.6,0,10.6,4.7,10.6,10v51.4c0,5.1-4.7,9.3-10.6,9.3h-9.6
		c-1.9,0-3.4,1.5-3.4,3.4v22.2l-34.8-25c-0.6-0.4-1.3-0.6-2-0.6H19.4c-5.5,0-9.4-3.8-9.4-9.3V24.3z"/>
	<path id="XMLID_2_" class="st0" d="M25.2,34.4h75.8c1.9,0,3.4-1.5,3.4-3.4c0-1.9-1.5-3.4-3.4-3.4H25.2c-1.9,0-3.4,1.5-3.4,3.4
		C21.9,32.9,23.4,34.4,25.2,34.4z"/>
	<path id="XMLID_1_" class="st0" d="M25.2,49.6h45.5c1.9,0,3.4-1.5,3.4-3.4c0-1.9-1.5-3.4-3.4-3.4H25.2c-1.9,0-3.4,1.5-3.4,3.4
		C21.9,48.1,23.4,49.6,25.2,49.6z"/>
</g>
</svg>
