<?xml version="1.0" encoding="utf-8"?>
<!-- Generator: Adobe Illustrator 19.0.0, SVG Export Plug-In . SVG Version: 6.00 Build 0)  -->
<svg version="1.1" id="Layer_1" xmlns="http://www.w3.org/2000/svg" xmlns:xlink="http://www.w3.org/1999/xlink" x="0px" y="0px"
	 viewBox="0 0 128 128" style="enable-background:new 0 0 128 128;" xml:space="preserve">
<style type="text/css">
	.st0{fill:#606060;}
</style>
<g id="XMLID_6_">
	<path id="XMLID_7_" class="st0" d="M12,110.3c0.9,1.1,2.5,1.6,3.9,1.1l15.3-4.9l4.4,15.4c0.4,1.4,1.6,2.4,3.1,2.6
		c0.1,0,0.3,0,0.4,0c1.3,0,2.5-0.7,3.2-1.9l18.5-34.7c1.3,0.1,2.6,0.2,3.9,0.2c1,0,1.9,0,2.9-0.1l18.5,34.6c0.6,1.2,1.9,1.9,3.2,1.9
		c0.1,0,0.3,0,0.4,0c1.5-0.2,2.7-1.2,3.1-2.6l4.4-15.4l15.3,4.9c1.4,0.5,2.9,0,3.9-1.1c0.9-1.1,1.1-2.7,0.4-4L97.9,71.7
		c5.6-7.2,8.9-16.1,8.9-25.9c0-23.3-19-42.3-42.3-42.3c-23.3,0-42.3,19-42.3,42.3c0,9.4,3.1,18.1,8.3,25.1l-18.9,35.4
		C10.9,107.6,11.1,109.2,12,110.3z M96.2,98.7c-0.9-0.3-1.9-0.2-2.8,0.2l-0.9,0.5c-0.9,0.5-1.5,1.2-1.8,2.2l-2.8,9.8L74.9,86.8
		c6.7-1.7,12.8-5,17.9-9.6l13.1,24.6L96.2,98.7z M64.5,10.7c19.4,0,35.1,15.8,35.1,35.1c0,19.4-15.8,35.1-35.1,35.1
		S29.4,65.2,29.4,45.8C29.4,26.4,45.1,10.7,64.5,10.7z M35.6,76.6c4.9,4.6,11,8.1,17.7,9.9L40,111.4l-2.8-9.8
		c-0.3-0.9-0.9-1.7-1.8-2.2L34.6,99c-0.9-0.5-1.9-0.6-2.8-0.3l-9.7,3.1L35.6,76.6z"/>
</g>
</svg>
